<?xml version="1.0" encoding="UTF-8" standalone="no"?>
<!-- Created with Inkscape (http://www.inkscape.org/) -->

<svg
   xmlns:dc="http://purl.org/dc/elements/1.1/"
   xmlns:cc="http://creativecommons.org/ns#"
   xmlns:rdf="http://www.w3.org/1999/02/22-rdf-syntax-ns#"
   xmlns:svg="http://www.w3.org/2000/svg"
   xmlns="http://www.w3.org/2000/svg"
   xmlns:sodipodi="http://sodipodi.sourceforge.net/DTD/sodipodi-0.dtd"
   xmlns:inkscape="http://www.inkscape.org/namespaces/inkscape"
   width="524.37903"
   height="199.68201"
   viewBox="0 0 524.37907 199.682"
   id="svg3358"
   version="1.1"
   inkscape:version="0.92.3 (unknown)"
   sodipodi:docname="logo.svg">
  <defs
     id="defs3360" />
  <sodipodi:namedview
     id="base"
     pagecolor="#ffffff"
     bordercolor="#666666"
     borderopacity="1.0"
     inkscape:pageopacity="0.0"
     inkscape:pageshadow="2"
     inkscape:zoom="0.98994949"
     inkscape:cx="107.76653"
     inkscape:cy="70.90519"
     inkscape:document-units="px"
     inkscape:current-layer="layer1"
     showgrid="false"
     units="px"
     inkscape:window-width="1920"
     inkscape:window-height="1025"
     inkscape:window-x="0"
     inkscape:window-y="27"
     inkscape:window-maximized="1" />
  <metadata
     id="metadata3363">
    <rdf:RDF>
      <cc:Work
         rdf:about="">
        <dc:format>image/svg+xml</dc:format>
        <dc:type
           rdf:resource="http://purl.org/dc/dcmitype/StillImage" />
        <dc:title />
      </cc:Work>
    </rdf:RDF>
  </metadata>
  <g
     inkscape:label="Layer 1"
     inkscape:groupmode="layer"
     id="layer1"
     transform="translate(0,-852.68026)">
    <path
       style="display:inline;fill:#ffffff;stroke:#ffffff;stroke-width:1px;stroke-linecap:butt;stroke-linejoin:miter;stroke-opacity:1"
       d="m 134.31463,853.20677 c -37.14131,2.87329 -70.16291,15.80994 -100.21881,66.8125 -5.7226,11.95063 -20.9915,6.95404 -31.1874993,10.53125 -3.74080007,1.30638 -2.40670006,15.60078 -0.7812,18.09375 8.6798003,8.02596 23.9636993,-6.21039 30.0936993,18.6875 0.5672,2.30383 2.5406,7.58209 3.5313,10.3125 40.5852,111.85513 198.60234,97.83613 206.34373,-45.84375 -6.63698,-3.36727 -12.95972,-20.81452 14.75,-22.46875 0.0221,0.022 0.0402,0.0405 0.0625,0.0625 1.87557,-0.11865 3.6088,-0.16996 5.28125,-0.1875 1.67232,0.0175 3.40568,0.0688 5.28125,0.1875 0.0223,-0.022 0.0404,-0.0405 0.0625,-0.0625 27.71483,1.65423 21.41823,19.10148 14.78125,22.46875 7.74139,143.67988 165.72731,157.69888 206.3125,45.84375 0.99069,-2.73041 2.96403,-8.00867 3.53125,-10.3125 6.13004,-24.89789 21.41393,-10.66154 30.09375,-18.6875 1.62547,-2.49297 2.95953,-16.78737 -0.78125,-18.09375 -10.19596,-3.57721 -25.46489,1.41938 -31.1875,-10.53125 -30.05592,-51.00256 -63.07753,-63.93921 -100.21875,-66.8125 -1.55628,-0.0321 -3.09296,-0.0264 -4.59375,0 -46.52462,0.81733 -66.85489,29.06119 -89.6875,44.28125 -12.78334,-1.21094 -18.36736,-8.42351 -33.59375,-7.96875 -15.2081,-0.44391 -20.81918,6.75864 -33.59377,7.96875 -23.5691,-15.71103 -44.4801,-45.30722 -94.2812,-44.28125 z m 1.6875,9.03125 c 49.2931,0 89.25,40.47706 89.25,90.40625 0,49.92913 -39.9569,90.40623 -89.25,90.40623 -49.29321,0 -89.25001,-40.4771 -89.25001,-90.40623 0,-49.92919 39.9568,-90.40625 89.25001,-90.40625 z m 252.40622,0 c 49.29315,0 89.25,40.47706 89.25,90.40625 0,49.92913 -39.95685,90.40623 -89.25,90.40623 -49.29315,0 -89.25,-40.4771 -89.25,-90.40623 0,-49.92919 39.95685,-90.40625 89.25,-90.40625 z"
       id="path4261"
       inkscape:connector-curvature="0" />
  </g>
</svg>
