<?xml version="1.0" encoding="UTF-8" standalone="no"?>
<!-- Created with Inkscape (http://www.inkscape.org/) -->

<svg
   xmlns:dc="http://purl.org/dc/elements/1.1/"
   xmlns:cc="http://creativecommons.org/ns#"
   xmlns:rdf="http://www.w3.org/1999/02/22-rdf-syntax-ns#"
   xmlns:svg="http://www.w3.org/2000/svg"
   xmlns="http://www.w3.org/2000/svg"
   xmlns:sodipodi="http://sodipodi.sourceforge.net/DTD/sodipodi-0.dtd"
   xmlns:inkscape="http://www.inkscape.org/namespaces/inkscape"
   width="524.37903"
   height="199.68201"
   viewBox="0 0 524.37907 199.682"
   id="svg3358"
   version="1.1"
   inkscape:version="0.92.3 (unknown)"
   sodipodi:docname="logo.svg">
  <defs
     id="defs3360" />
  <sodipodi:namedview
     id="base"
     pagecolor="#ffffff"
     bordercolor="#666666"
     borderopacity="1.0"
     inkscape:pageopacity="0.0"
     inkscape:pageshadow="2"
     inkscape:zoom="0.98994949"
     inkscape:cx="235.73503"
     inkscape:cy="48.215597"
     inkscape:document-units="px"
     inkscape:current-layer="layer1"
     showgrid="false"
     units="px"
     inkscape:window-width="960"
     inkscape:window-height="1025"
     inkscape:window-x="960"
     inkscape:window-y="27"
     inkscape:window-maximized="0" />
  <metadata
     id="metadata3363">
    <rdf:RDF>
      <cc:Work
         rdf:about="">
        <dc:format>image/svg+xml</dc:format>
        <dc:type
           rdf:resource="http://purl.org/dc/dcmitype/StillImage" />
        <dc:title />
      </cc:Work>
    </rdf:RDF>
  </metadata>
  <g
     inkscape:label="Layer 1"
     inkscape:groupmode="layer"
     id="layer1"
     transform="translate(0,-852.68026)">
    <path
       style="display:inline;fill:#ffffff;stroke:#ffffff;stroke-width:0.58363998px;stroke-linecap:butt;stroke-linejoin:miter;stroke-opacity:1"
       d="m 173.32546,859.71366 c -21.67717,1.67699 -40.9499,9.22732 -58.49171,38.99446 -3.33997,6.97487 -12.25149,4.05864 -18.202287,6.14645 -2.183303,0.76247 -1.404653,9.10524 -0.455943,10.56025 5.06589,4.68425 13.98618,-3.62463 17.56391,10.90675 0.33085,1.34461 1.48277,4.42521 2.061,6.01879 23.6871,65.28317 115.91228,57.10104 120.43048,-26.75624 -3.87365,-1.96526 -7.56385,-12.14817 8.60866,-13.11367 0.0103,0.0103 0.0225,0.0225 0.0374,0.0374 1.09467,-0.0693 2.10623,-0.0992 3.08234,-0.10935 0.97607,0.0103 1.9877,0.0401 3.08233,0.10935 0.0103,-0.0103 0.0225,-0.0225 0.0374,-0.0374 16.17549,0.9655 12.50055,11.14841 8.62692,13.11367 4.51823,83.85728 96.72511,92.03941 120.41228,26.75624 0.57817,-1.59358 1.72993,-4.67418 2.06096,-6.01879 3.57773,-14.53138 12.49802,-6.2225 17.56392,-10.90675 0.94872,-1.45501 1.72729,-9.79778 -0.45596,-10.56025 -5.95077,-2.08781 -14.86232,0.82842 -18.20232,-6.14645 -17.54177,-29.76714 -36.81455,-37.31747 -58.49162,-38.99446 -0.90831,-0.0186 -1.80519,-0.0145 -2.68112,0 -27.15362,0.47705 -39.01918,16.96128 -52.3452,25.84431 -7.46089,-0.70675 -10.71994,-4.91631 -19.60668,-4.65087 -8.87602,-0.259 -12.1509,3.94464 -19.60665,4.65087 -13.75589,-9.16957 -25.96038,-26.44308 -55.02628,-25.84431 z m 0.98489,5.27104 c 28.76941,0 52.08987,23.62401 52.08987,52.76468 0,29.14063 -23.32046,52.76465 -52.08987,52.76465 -28.76951,0 -52.08992,-23.62402 -52.08992,-52.76465 0,-29.14067 23.32041,-52.76468 52.08992,-52.76468 z m 147.31437,0 c 28.76946,0 52.08984,23.62401 52.08984,52.76468 0,29.14063 -23.32038,52.76465 -52.08984,52.76465 -28.76946,0 -52.0899,-23.62402 -52.0899,-52.76465 0,-29.14067 23.32044,-52.76468 52.0899,-52.76468 z"
       id="path4261"
       inkscape:connector-curvature="0" />
    <text
       xml:space="preserve"
       style="font-style:normal;font-variant:normal;font-weight:normal;font-stretch:normal;font-size:47.06251144px;line-height:1.25;font-family:Dingbats;-inkscape-font-specification:Dingbats;letter-spacing:0px;word-spacing:0px;fill:#ffffff;fill-opacity:1;stroke:none;stroke-width:1.17656279"
       x="102.90278"
       y="1041.1522"
       id="text832"><tspan
         sodipodi:role="line"
         id="tspan830"
         x="102.90278"
         y="1041.1522"
         style="font-style:normal;font-variant:normal;font-weight:bold;font-stretch:normal;line-height:4;font-family:Manjari;-inkscape-font-specification:'Manjari Bold';stroke-width:1.17656279">MONOK</tspan></text>
    <text
       xml:space="preserve"
       style="font-style:normal;font-variant:normal;font-weight:normal;font-stretch:normal;font-size:47.06251144px;line-height:1.25;font-family:Dingbats;-inkscape-font-specification:Dingbats;letter-spacing:0px;word-spacing:0px;fill:#ffffff;fill-opacity:1;stroke:none;stroke-width:1.17656279"
       x="267.58203"
       y="1041.7054"
       id="text832-2"><tspan
         sodipodi:role="line"
         id="tspan830-9"
         x="267.58203"
         y="1041.7054"
         style="font-style:normal;font-variant:normal;font-weight:normal;font-stretch:normal;font-family:Manjari;-inkscape-font-specification:Manjari;stroke-width:1.17656279"> DOCS</tspan></text>
    <flowRoot
       xml:space="preserve"
       id="flowRoot852"
       style="fill:black;fill-opacity:1;stroke:none;font-family:sans-serif;font-style:normal;font-weight:normal;font-size:40px;line-height:1.25;letter-spacing:0px;word-spacing:0px"><flowRegion
         id="flowRegion854"><rect
           id="rect856"
           width="352.54324"
           height="208.09143"
           x="191.92899"
           y="-73.059181" /></flowRegion><flowPara
         id="flowPara858"></flowPara></flowRoot>  </g>
</svg>
